<?xml version="1.0" encoding="utf-8"?>
<!-- Generator: Adobe Illustrator 22.1.0, SVG Export Plug-In . SVG Version: 6.00 Build 0)  -->
<svg version="1.1" id="Layer_1" xmlns="http://www.w3.org/2000/svg" xmlns:xlink="http://www.w3.org/1999/xlink" x="0px" y="0px"
	 viewBox="0 0 379.9 208.9" style="enable-background:new 0 0 379.9 208.9;" xml:space="preserve">
<style type="text/css">
	.st0{fill:#FFFFFF;}
	.st1{fill:none;}
	.st2{font-family:'Noteworthy-Bold';}
	.st3{font-size:40px;}
</style>
<g>
	<g>
		<path class="st0" d="M183.2,125.5c1.2-10.2-4-19.7-12-25.9c-8.6-6.7-19.4-8.5-30-7c-18.5,2.5-45.8,15.2-48.3,36.3
			c-1.3,11,5.1,17.3,15.6,18.7c8.2,1.1,18.1-1.4,20.4-10.4c2.6-9.8-5.2-19.4-13.2-24c-8.4-4.7-18.6-5.9-27.9-3.5
			c-27.1,7-38.6,35.6-44.8,60c-0.8,3.1,4,4.5,4.8,1.3c4.4-17.4,10.5-35.4,24.5-47.5c12.6-10.8,32.8-14.6,45.9-2.3
			c6.6,6.2,9.5,18.7-1.9,21.2c-3.6,0.8-7.5,0.4-11-0.7c-5.8-1.7-8-5.8-7.6-11.6c1.3-17.4,23.7-28,38.3-31.6
			c9.9-2.5,20.9-2.4,29.8,3.3c8.1,5.2,13.4,13.8,12.3,23.6C177.8,128.7,182.8,128.7,183.2,125.5L183.2,125.5z"/>
	</g>
</g>
<g>
	<g>
		<path class="st0" d="M47,173.1c5.6-6.4,13.9-8.9,22.1-6.4c3.1,0.9,4.4-3.9,1.3-4.8c-9.7-2.9-20.3,0-26.9,7.7
			C41.3,172,44.8,175.6,47,173.1L47,173.1z"/>
	</g>
</g>
<g>
	<g>
		<path class="st0" d="M46.5,170.8c-0.5-9.6-5.2-18-13.1-23.4c-2.7-1.8-5.2,2.5-2.5,4.3c6.4,4.4,10.2,11.4,10.6,19.1
			C41.7,174,46.7,174,46.5,170.8L46.5,170.8z"/>
	</g>
</g>
<rect x="149.3" y="45.5" class="st1" width="240.6" height="42.6"/>
<text transform="matrix(1 0 0 1 149.2806 79.0651)" class="st0 st2 st3">Pick a Date!</text>
</svg>
